<svg width="200" height="200" viewBox="0 0 200 200" fill="none" xmlns="http://www.w3.org/2000/svg">
<path d="M100 200L53.3333 127.854L146.667 127.854L100 200Z" fill="#2E2F38"/>
<path d="M100 200L146.667 127.854L200 127.854L100 200Z" fill="#242428"/>
<path d="M100 200L53.3333 127.854L-6.30721e-06 127.854L50 163.927L100 200Z" fill="#242428"/>
<path d="M100 8.74228e-06L146.667 72.1461L53.3333 72.1461L100 8.74228e-06Z" fill="#DADBDF"/>
<path d="M200 127.854L146.667 127.854L146.667 72.1461L200 72.1461L200 127.854Z" fill="#2E2F38"/>
<path d="M53.3333 127.854L-6.30721e-06 127.854L-1.11773e-05 72.1461L53.3333 72.1461L53.3333 127.854Z" fill="#2E2F38"/>
<path d="M146.667 127.854L53.3333 127.854L53.3333 72.1461L146.667 72.1461L146.667 127.854Z" fill="#5C5F70"/>
<path d="M100 8.74228e-06L146.667 72.1461L200 72.1461L100 8.74228e-06Z" fill="#797E93"/>
<path d="M53.3333 72.1461L100 8.74228e-06L-1.11773e-05 72.1461L53.3333 72.1461Z" fill="#C8CBD5"/>
</svg>
